<svg xmlns="http://www.w3.org/2000/svg" width="132" height="114" viewBox="0 0 132 114">
    <g fill="none" fill-rule="evenodd">
        <path fill="#F5F5FA" fill-rule="nonzero" d="M109 54.056l18.441 10.669a8 8 0 0 1 3.994 6.924v22.684a8 8 0 0 1-4.027 6.944L107.69 112.56a8 8 0 0 1-7.945 0l-19.718-11.282A7.993 7.993 0 0 1 78.16 99.8l-9.186 5.256a8 8 0 0 1-7.946 0l-36-20.597A8 8 0 0 1 21 77.515V58.988l-16.973-9.71A8 8 0 0 1 0 42.332V19.65a8 8 0 0 1 3.994-6.924L23.71 1.318a8 8 0 0 1 8.013 0L51.44 12.725c.314.181.613.383.895.601l8.658-5.008a8 8 0 0 1 8.012 0l36 20.827A8 8 0 0 1 109 36.069v17.987z"/>
        <path fill="#627EEA" fill-rule="nonzero" d="M25.572 36.793l-.026.015-9.453-5.585 9.453-15.677 9.453 15.677-9.427 5.57v.015-.015zm-.026 1.804l9.458-5.582-9.458 13.315-9.453-13.315 9.453 5.582z"/>
        <path fill="#000" fill-rule="nonzero" d="M105.739 67l-7.537 10.333L95 92.533 105.739 99l10.739-6.467-3.202-15.266L105.74 67zm-5.803 10.6l5.803-7.933 5.803 7.933L105.74 95l-5.803-17.4zm12.406 2.6l2.402 11.6-7.871 4.733 5.47-16.333zM96.734 91.8l2.402-11.6 5.47 16.333-7.872-4.733z"/>
        <path fill="#FFF" fill-rule="nonzero" d="M44.994 40.757l16.317-9.44a8 8 0 0 1 8.012 0l16.317 9.44a8 8 0 0 1 3.994 6.925v18.766a8 8 0 0 1-4.028 6.943L69.29 82.727a8 8 0 0 1-7.946 0L45.027 73.39A8 8 0 0 1 41 66.448V47.682a8 8 0 0 1 3.994-6.925z"/>
        <path fill="#102644" d="M64.477 41.546l7.342 4.195-7.342 4.194-7.205-4.194 7.205-4.195zm8.905 6.833v8.39l-7.341 4.194v-8.389l7.341-4.195zM66.041 63.94l9.788-5.548v8.39l-9.788 5.547V63.94zM55.708 56.77v-8.39l7.342 4.195v8.39l-7.342-4.195zm0 11.366v-8.39l7.342 4.195v8.39l-7.342-4.195z"/>
    </g>
</svg>
