<svg xmlns="http://www.w3.org/2000/svg" width="109" height="92" viewBox="0 0 109 92">
    <g fill="none" fill-rule="evenodd">
        <g fill-rule="nonzero">
            <path fill="#F5F5FA" d="M56.994 42.725L76.71 31.318a8 8 0 0 1 8.013 0l19.717 11.407a8 8 0 0 1 3.994 6.924v22.684a8 8 0 0 1-4.027 6.944L84.69 90.56a8 8 0 0 1-7.945 0L57.027 79.277A8 8 0 0 1 53 72.333V49.65a8 8 0 0 1 3.994-6.924z"/>
            <path fill="#000" d="M80.739 45l-7.537 10.333L70 70.533 80.739 77l10.739-6.467-3.202-15.266L80.74 45zm-5.803 10.6l5.803-7.933 5.803 7.933L80.74 73l-5.803-17.4zm12.406 2.6l2.402 11.6-7.871 4.733 5.47-16.333zM71.734 69.8l2.402-11.6 5.47 16.333-7.872-4.733z"/>
        </g>
        <path fill="#F5F5FA" fill-rule="nonzero" d="M3.994 12.725L23.71 1.318a8 8 0 0 1 8.013 0L51.44 12.725a8 8 0 0 1 3.994 6.924v22.684a8 8 0 0 1-4.027 6.944L31.69 60.56a8 8 0 0 1-7.945 0L4.027 49.277A8 8 0 0 1 0 42.333V19.65a8 8 0 0 1 3.994-6.924z"/>
        <path fill="#102644" d="M26.115 15l7.632 4.36-7.632 4.36-7.49-4.36 7.49-4.36zm9.257 7.103v8.721l-7.631 4.36v-8.72l7.631-4.36zM27.741 38.28l10.175-5.767v8.72L27.741 47v-8.72zM17 30.824v-8.72l7.631 4.36v8.72L17 30.825zm0 11.816v-8.721l7.631 4.36V47L17 42.64z"/>
    </g>
</svg>
