<svg xmlns="http://www.w3.org/2000/svg" width="109" height="92" viewBox="0 0 109 92">
    <g fill="none" fill-rule="evenodd">
        <g fill-rule="nonzero">
            <path fill="#F5F5FA" d="M3.994 12.725L23.71 1.318a8 8 0 0 1 8.013 0L51.44 12.725a8 8 0 0 1 3.994 6.924v22.684a8 8 0 0 1-4.027 6.944L31.69 60.56a8 8 0 0 1-7.945 0L4.027 49.277A8 8 0 0 1 0 42.333V19.65a8 8 0 0 1 3.994-6.924z"/>
            <path fill="#627EEA" d="M27.572 36.793l-.026.015-9.453-5.585 9.453-15.677 9.453 15.677-9.427 5.57v.015-.015zm-.026 1.804l9.458-5.582-9.458 13.315-9.453-13.315 9.453 5.582z"/>
        </g>
        <path fill="#F5F5FA" fill-rule="nonzero" d="M56.994 42.725L76.71 31.318a8 8 0 0 1 8.013 0l19.717 11.407a8 8 0 0 1 3.994 6.924v22.684a8 8 0 0 1-4.027 6.944L84.69 90.56a8 8 0 0 1-7.945 0L57.027 79.277A8 8 0 0 1 53 72.333V49.65a8 8 0 0 1 3.994-6.924z"/>
        <path fill="#102644" d="M79.477 45.546l7.342 4.195-7.342 4.194-7.205-4.194 7.205-4.195zm8.905 6.833v8.39l-7.341 4.194v-8.389l7.341-4.195zM81.041 67.94l9.788-5.548v8.39l-9.788 5.547V67.94zM70.708 60.77v-8.39l7.342 4.195v8.39l-7.342-4.195zm0 11.366v-8.39l7.342 4.195v8.39l-7.342-4.195z"/>
    </g>
</svg>
